# xmcd CD database file
#
# Track frame offsets:
#	150
#	39383
#	58201
#	82559
#	132280
#	154153
#	182541
#	208973
#	243341
#	297652
#	315175
#
# Disc length: 4460 seconds
#
# Revision: 0
# Processed by: cddbd v1.4PL0 Copyright (c) Steve Scherf et al.
# Submitted via: CDex 1.50Beta7
#
DISCID=93116a0b
DTITLE=Stevie Ray Vaughan - The Forgotten Show
DYEAR=1987
DGENRE=Blues
TTITLE0=Scuttle Buttin'/Say What
TTITLE1=Lookin' Out The Window
TTITLE2=Look At Little Sister
TTITLE3=Ain't Gone 'n' Give Up On Love
TTITLE4=Superstition
TTITLE5=Willie The Wimp
TTITLE6=Cold Shot
TTITLE7=Couldn't Stand The Weather
TTITLE8=Life Without You
TTITLE9=Love Struck Baby
TTITLE10=Rude Mood
EXTD=YEAR: 1987
EXTT0=
EXTT1=
EXTT2=
EXTT3=
EXTT4=
EXTT5=
EXTT6=
EXTT7=
EXTT8=
EXTT9=
EXTT10=
PLAYORDER=
